<svg width="220.55750732421873px" height="60.97640991210938px" xmlns="http://www.w3.org/2000/svg"
	viewBox="139.72124633789065 4.5117950439453125 220.55750732421873 140.97640991210938" style="background: none;"
	preserveAspectRatio="xMidYMid">
	<defs>
		<filter id="editing-lego" x="-100%" y="-100%" width="300%" height="300%">
			<feFlood flood-color="#000000" result="f1"></feFlood>
			<feFlood flood-color="#ffffff" result="f2"></feFlood>
			<feMorphology operator="dilate" radius="3" in="SourceAlpha"></feMorphology>
			<feConvolveMatrix order="5,5" divisor="1" result="cm1"
				kernelMatrix="0 1 1 1 0  1 0 0 0 1  1 0 0 0 1  1 0 0 0 1  0 1 1 1 0"></feConvolveMatrix>
			<feComposite operator="in" in="f1" in2="cm1" result="c1"></feComposite>
			<feMorphology operator="dilate" radius="3"></feMorphology>
			<feConvolveMatrix order="5,5" divisor="1" result="cm2"
				kernelMatrix="0 1 1 1 0  1 0 0 0 1  1 0 0 0 1  1 0 0 0 1  0 1 1 1 0"></feConvolveMatrix>
			<feComposite operator="in" in="f2" in2="cm2" result="c2"></feComposite>
			<feMerge>
				<feMergeNode in="c2"></feMergeNode>
				<feMergeNode in="c1"></feMergeNode>
				<feMergeNode in="SourceGraphic"></feMergeNode>
			</feMerge>
		</filter>
	</defs>
	<g filter="url(#editing-lego)">
		<g transform="translate(178.23499393463135, 102.45093727111816)">
			<path
				d="M31.58-12.83L31.58-12.83L31.58-12.83Q32.52-11.48 32.52-9.57L32.52-9.57L32.52-9.57Q32.52-7.66 32.26-6.27L32.26-6.27L32.26-6.27Q32.00-4.89 31.55-3.64L31.55-3.64L31.55-3.64Q30.51-0.90 28.91 0L28.91 0L1.04 0L1.04 0Q3.78-1.70 4.61-2.95L4.61-2.95L4.61-2.95Q6.21-5.30 6.21-9.05L6.21-9.05L6.21-9.05Q6.17-18.27 6.17-25.72L6.17-25.72L6.17-43.89L6.17-43.89Q6.17-48.92 4.51-51.27L4.51-51.27L4.51-51.27Q3.92-52.14 3.05-53.04L3.05-53.04L17.30-53.04L17.30-53.04Q15.25-50.10 14.98-46.98L14.98-46.98L14.98-46.98Q14.91-45.94 14.91-44.69L14.91-44.69L14.91-12.93L14.91-12.93Q14.91-6.45 15.60-5.18L15.60-5.18L15.60-5.18Q16.29-3.92 17.26-3.69L17.26-3.69L17.26-3.69Q18.24-3.47 20.21-3.47L20.21-3.47L20.21-3.47Q22.19-3.47 23.96-4.16L23.96-4.16L23.96-4.16Q25.72-4.85 27.11-6.10L27.11-6.10L27.11-6.10Q29.47-8.25 31.58-12.83ZM50.72-32.24L50.72-32.24Q47.60-32.24 46.23-29.12L46.23-29.12L46.23-29.12Q44.86-26.00 44.86-18.62L44.86-18.62L44.86-18.62Q44.86-2.77 50.72-2.77L50.72-2.77L50.72-2.77Q53.84-2.77 55.21-7.00L55.21-7.00L55.21-7.00Q56.58-11.23 56.58-18.62L56.58-18.62L56.58-18.62Q56.58-26.00 55.21-29.12L55.21-29.12L55.21-29.12Q53.84-32.24 50.72-32.24L50.72-32.24ZM36.12-19.93L36.12-19.93Q36.12-35.71 50.72-35.71L50.72-35.71L50.72-35.71Q65.31-35.71 65.31-19.93L65.31-19.93L65.31-19.93Q65.31-10.37 61.29-4.78L61.29-4.78L61.29-4.78Q57.38 0.69 50.72 0.69L50.72 0.69L50.72 0.69Q44.06 0.69 40.15-4.78L40.15-4.78L40.15-4.78Q36.12-10.37 36.12-19.93L36.12-19.93ZM102.06-33.42L102.06-31.76L101.54-16.26L101.54-16.26Q101.54-6.79 103.21-3.26L103.21-3.26L103.21-3.26Q103.80-1.98 105.29 0L105.29 0L95.65 0L95.65 0Q94.85-2.36 94.61-5.96L94.61-5.96L94.61-5.96Q90.59 0.69 84.24 0.69L84.24 0.69L84.24 0.69Q79.88 0.69 77.55-2.57L77.55-2.57L77.55-2.57Q75.26-5.72 75.26-11.23L75.26-11.23L75.26-15.91L75.26-15.91Q75.26-17.47 75.26-19.10L75.26-19.10L75.19-22.26L75.19-22.26Q75.16-25.27 75.00-26.95L75.00-26.95L75.00-26.95Q74.85-28.64 74.66-29.76L74.66-29.76L74.66-29.76Q74.47-30.89 74.19-31.77L74.19-31.77L74.19-31.77Q73.91-32.66 73.57-33.42L73.57-33.42L72.80-35.01L82.82-35.01L82.82-35.01Q82.86-34.46 82.86-33.97L82.86-33.97L82.86-32.97L82.86-32.97Q82.86-32.97 82.27-15.57L82.27-15.57L82.27-15.57Q82.27-10.47 82.93-8.63L82.93-8.63L82.93-8.63Q83.58-6.79 84.50-6.00L84.50-6.00L84.50-6.00Q85.42-5.20 86.95-5.20L86.95-5.20L86.95-5.20Q91.07-5.20 93.64-9.71L93.64-9.71L93.64-9.71Q94.33-10.99 94.78-12.31L94.78-12.31L94.78-12.31Q94.85-14.25 94.85-16.71L94.85-16.71L94.85-16.71Q94.85-29.36 92.98-33.42L92.98-33.42L92.22-35.01L102.10-35.01L102.10-35.01Q102.06-34.15 102.06-33.42L102.06-33.42ZM122.59 0L112.64 0L112.64 0Q114.23-5.48 114.23-18.82L114.23-18.82L114.23-18.82Q114.23-28.32 112.57-31.79L112.57-31.79L112.57-31.79Q112.15-32.66 111.63-33.42L111.63-33.42L110.49-35.01L122.52-35.01L122.52-35.01Q122.00-33.28 121.82-31.76L121.82-31.76L121.55-29.26L121.55-29.26Q125.74-35.71 132.22-35.71L132.22-35.71L132.22-35.71Q136.42-35.71 138.78-32.45L138.78-32.45L138.78-32.45Q141.06-29.26 141.06-23.82L141.06-23.82L141.06-20.11L141.06-20.11Q141.06-10.57 141.24-8.46L141.24-8.46L141.24-8.46Q141.41-6.34 141.51-5.23L141.51-5.23L141.51-5.23Q141.62-4.13 141.76-3.26L141.76-3.26L141.76-3.26Q142-1.63 142.49 0L142.49 0L132.33 0L132.33 0Q133.92-5.48 133.92-18.82L133.92-18.82L133.92-18.82Q133.92-24.16 133.25-26.14L133.25-26.14L133.25-26.14Q132.57-28.12 131.63-28.97L131.63-28.97L131.63-28.97Q130.70-29.81 129.17-29.81L129.17-29.81L129.17-29.81Q126.36-29.81 124.08-27.60L124.08-27.60L124.08-27.60Q122.10-25.69 121.06-22.74L121.06-22.74L121.06-22.74Q120.99-21.81 120.99-20.80L120.99-20.80L120.99-18.82L120.99-18.82Q120.99-5.48 122.59 0L122.59 0Z"
				fill="#00d8ff"></path>
		</g>
	</g>
	<style>
		text {
			font-size: 64px;
			font-family: Arial Black;
			dominant-baseline: central;
			text-anchor: middle;
		}
	</style>
</svg>